<svg width="28" height="28" viewBox="0 0 28 28" fill="none" xmlns="http://www.w3.org/2000/svg">
<path d="M8.4 13.9998C11.1081 13.9998 13.3 11.8174 13.3 9.12098C13.3 6.42457 11.1081 4.24219 8.4 4.24219C5.69187 4.24219 3.5 6.42457 3.5 9.12098C3.5 11.8174 5.69187 13.9998 8.4 13.9998ZM11.76 15.3937H11.3969C10.4869 15.8293 9.47625 16.0907 8.4 16.0907C7.32375 16.0907 6.3175 15.8293 5.40312 15.3937H5.04C2.2575 15.3937 0 17.6414 0 20.4119V21.6664C0 22.8208 0.940625 23.7573 2.1 23.7573H14.7C15.8594 23.7573 16.8 22.8208 16.8 21.6664V20.4119C16.8 17.6414 14.5425 15.3937 11.76 15.3937ZM21 13.9998C23.3188 13.9998 25.2 12.1267 25.2 9.81795C25.2 7.50923 23.3188 5.63613 21 5.63613C18.6812 5.63613 16.8 7.50923 16.8 9.81795C16.8 12.1267 18.6812 13.9998 21 13.9998ZM23.1 15.3937H22.9338C22.3256 15.6028 21.6825 15.7422 21 15.7422C20.3175 15.7422 19.6744 15.6028 19.0662 15.3937H18.9C18.0075 15.3937 17.185 15.6507 16.4631 16.0645C17.5306 17.2102 18.2 18.7304 18.2 20.4119V22.0846C18.2 22.1804 18.1781 22.2719 18.1737 22.3634H25.9C27.0594 22.3634 28 21.4268 28 20.2725C28 17.5761 25.8081 15.3937 23.1 15.3937Z" fill="#E6DFD7"/>
</svg>
