<svg width="25" height="24" viewBox="0 0 25 24" fill="none" xmlns="http://www.w3.org/2000/svg">
<path d="M1.66455 5.7175H21.1646C21.5789 5.7175 21.9146 5.37906 21.9146 4.9612V1.93599C21.9146 1.51813 21.5789 1.17969 21.1646 1.17969H1.66455C1.25018 1.17969 0.914551 1.51813 0.914551 1.93599V4.9612C0.914551 5.37906 1.25018 5.7175 1.66455 5.7175ZM24.1646 9.49902H4.66455C4.25018 9.49902 3.91455 9.83746 3.91455 10.2553V13.2805C3.91455 13.6984 4.25018 14.0368 4.66455 14.0368H24.1646C24.5789 14.0368 24.9146 13.6984 24.9146 13.2805V10.2553C24.9146 9.83746 24.5789 9.49902 24.1646 9.49902ZM21.1646 17.8183H1.66455C1.25018 17.8183 0.914551 18.1568 0.914551 18.5746V21.5999C0.914551 22.0177 1.25018 22.3562 1.66455 22.3562H21.1646C21.5789 22.3562 21.9146 22.0177 21.9146 21.5999V18.5746C21.9146 18.1568 21.5789 17.8183 21.1646 17.8183Z" fill="#E6DFD7"/>
</svg>
