<svg width="231" height="68" viewBox="0 0 231 68" fill="none" xmlns="http://www.w3.org/2000/svg">
<path d="M25.0919 41.9383C26.0606 41.5945 26.9148 41.3862 27.6544 41.3133C28.3887 41.2456 28.8002 41.3445 28.8835 41.6049C28.9669 41.8289 28.4304 42.5424 27.2794 43.7508C26.1231 44.9487 25.0606 45.8966 24.0919 46.6049C20.4773 49.2716 18.0346 50.032 16.7585 48.8758C16.1752 48.3914 16.0554 47.8654 16.4044 47.2924C16.7637 46.7091 17.7012 45.9278 19.2169 44.9383C20.9929 43.7456 22.9512 42.7456 25.0919 41.9383ZM19.6127 29.6674C20.9877 29.407 21.8262 29.2664 22.1335 29.2508C22.4512 29.2247 22.946 29.3028 23.6127 29.4799C24.946 29.8289 25.6127 30.6258 25.6127 31.8758C25.6127 32.8497 25.2429 33.5372 24.5085 33.9383C23.7846 34.3445 22.3939 34.6362 20.3419 34.8133C17.4512 35.0789 15.7221 34.4331 15.1544 32.8758C14.9721 32.4747 14.9512 32.1206 15.0919 31.8133C15.3106 31.0112 16.821 30.2924 19.6127 29.6674ZM53.1544 29.4174C53.821 28.657 54.196 28.8758 54.2794 30.0841C54.321 30.6987 54.3002 31.6674 54.2169 33.0008C54.0346 35.9904 53.4512 39.0528 52.4669 42.1883C51.4929 45.3133 50.4096 47.5633 49.2169 48.9383C48.5919 49.6049 47.8106 50.1883 46.8835 50.6883C45.9512 51.1778 45.2429 51.3497 44.7585 51.2091C44.3523 51.0737 44.1544 50.907 44.1544 50.7091C44.1544 50.5164 44.3731 50.1049 44.821 49.4799C45.5294 48.4539 46.1439 47.3028 46.6752 46.0216C47.2169 44.7299 48.0606 42.4174 49.2169 39.0841C51.0762 33.4747 52.3887 30.2508 53.1544 29.4174ZM56.946 22.0841C58.5971 21.8081 60.1544 21.6987 61.6127 21.7508C63.0814 21.7924 64.1544 21.9904 64.821 22.3341C65.3887 22.657 65.9721 23.2195 66.571 24.0216C67.1804 24.8133 67.5971 25.5633 67.821 26.2716C68.0398 27.2612 68.1179 28.7872 68.0502 30.8549C67.9773 32.9122 67.7689 34.6778 67.4252 36.1466C65.9096 42.2716 64.1752 46.1831 62.2169 47.8758C60.6179 49.2508 59.0189 49.8758 57.4252 49.7508C56.7585 49.6987 56.3002 49.6049 56.0502 49.4799C55.8002 49.3445 55.4981 49.0528 55.1544 48.6049C54.7481 48.1622 54.4356 47.6883 54.2169 47.1883C53.9929 46.6778 53.9512 46.3497 54.0919 46.2091C54.1752 46.1258 54.4773 46.3081 55.0085 46.7508C55.5502 47.1987 56.0085 47.4174 56.3835 47.4174C56.7585 47.4174 57.2377 47.2195 57.821 46.8133C59.0137 45.8862 60.1127 43.5528 61.1127 39.8133C62.1127 36.0789 62.6335 32.4331 62.6752 28.8758C62.6752 26.9591 62.5398 25.9174 62.2794 25.7508C61.6127 25.3081 58.3471 25.6831 52.4877 26.8758C49.7794 27.407 48.2429 27.6049 47.8835 27.4799C47.4356 27.3862 47.0814 27.1674 46.821 26.8341C46.5554 26.5008 46.446 26.1414 46.4877 25.7508C46.571 25.1674 47.5971 24.5372 49.571 23.8549C51.5554 23.1622 54.0137 22.5737 56.946 22.0841ZM33.2794 22.3341C33.6804 21.8081 34.1648 21.6154 34.7377 21.7508C35.321 21.8758 35.8939 22.3237 36.4669 23.0841C37.0502 23.8341 37.4512 24.7247 37.6752 25.7508L37.8835 26.5424L40.4877 25.7508C42.3054 25.3081 43.3939 25.0841 43.7585 25.0841C44.1439 25.0841 44.5189 25.2664 44.8835 25.6258C45.2429 25.9747 45.4252 26.3706 45.4252 26.8133C45.4252 27.5633 45.0554 28.2091 44.321 28.7508C43.5814 29.282 42.2377 29.8758 40.2794 30.5424L38.2169 31.2091L38.0085 35.0841C37.8835 37.6154 37.8627 38.9487 37.946 39.0841C38.0398 39.1258 39.3314 38.5008 41.821 37.2091C44.3887 35.8758 45.8314 35.2091 46.1544 35.2091C47.1231 35.2091 46.9044 36.1414 45.4877 38.0008C44.5554 39.2508 43.2429 40.7612 41.5502 42.5216C39.8523 44.2716 38.6127 45.4331 37.821 46.0008C36.7898 46.7664 35.7794 47.1414 34.7794 47.1258C33.7794 47.0997 32.946 46.6831 32.2794 45.8758C31.7064 45.1674 31.3523 44.3706 31.2169 43.4799C31.0762 42.5945 31.0971 40.9695 31.2794 38.6049C31.4564 35.8133 31.6179 34.1674 31.7585 33.6674C31.8419 33.407 31.8106 33.2508 31.6752 33.2091C31.5502 33.1674 31.1752 33.1466 30.5502 33.1466C28.8523 33.1466 27.7221 32.6154 27.1544 31.5424C27.0137 31.282 26.9669 31.0841 27.0085 30.9591C27.0606 30.8237 27.2221 30.6154 27.4877 30.3341C27.9304 29.9904 28.8002 29.6154 30.0919 29.2091L32.0919 28.6049L32.2169 26.7508C32.4356 24.532 32.7898 23.0581 33.2794 22.3341ZM20.7585 16.7508C23.8106 16.2091 25.946 16.5633 27.1544 17.8133C27.9044 18.5633 28.1127 19.4539 27.7794 20.4799C27.446 21.4956 26.7012 22.1414 25.5502 22.4174C24.5189 22.7247 23.2846 22.6466 21.8419 22.1883C20.3939 21.7195 19.321 21.0581 18.6127 20.2091C17.9044 19.407 17.5554 18.6987 17.571 18.0841C17.5971 17.4591 17.9929 17.1258 18.7585 17.0841C19.5085 16.9904 20.1752 16.8758 20.7585 16.7508Z" fill="#E6DFD7"/>
<path d="M85.549 47.8026C86.5178 47.3599 87.0073 47.3131 87.0073 47.6568C87.0073 47.7558 87.0073 47.8443 87.0073 47.9276C86.924 48.2506 87.0334 48.9068 87.3407 49.9068C87.6584 50.9068 87.9501 51.5631 88.2157 51.8651C88.6584 52.3131 88.7157 52.7714 88.3823 53.2401C88.049 53.6985 87.4553 54.0006 86.6115 54.136C85.9032 54.2193 85.2782 54.0318 84.7365 53.5735C84.2053 53.1047 83.8719 52.4641 83.7365 51.6568C83.6532 50.9068 83.7834 50.1464 84.1323 49.3651C84.4917 48.5891 84.9657 48.0683 85.549 47.8026ZM105.007 46.8651C108.033 45.9797 110.257 46.5735 111.674 48.6568C112.742 50.2141 112.679 51.5943 111.487 52.8026C111.08 53.1516 110.757 53.3808 110.507 53.4901C110.268 53.6047 109.893 53.6568 109.382 53.6568C108.867 53.6568 108.476 53.5943 108.216 53.4693C107.95 53.3339 107.57 53.0631 107.07 52.6568C106.497 52.1724 106.018 51.5735 105.632 50.8651C105.257 50.1568 105.049 49.5318 105.007 48.9901C105.007 48.6047 104.747 48.261 104.237 47.9693C103.737 47.6776 103.487 47.4901 103.487 47.4068C103.487 47.3131 103.992 47.1308 105.007 46.8651ZM94.8823 33.8651C95.1428 33.6881 95.3719 33.5943 95.5698 33.5943C95.7782 33.5943 96.1323 33.9276 96.6323 34.5943C97.1428 35.261 97.5126 35.886 97.7365 36.4693L98.0698 37.1985H100.341C102.434 37.1151 103.487 37.4068 103.487 38.0735C103.487 38.2401 103.158 38.5214 102.507 38.9068C101.867 39.2818 101.122 39.6256 100.278 39.9276C99.6948 40.1099 99.3042 40.2766 99.1115 40.4276C98.9136 40.5839 98.8615 40.7297 98.9448 40.8651C99.0282 41.1724 99.1167 43.0631 99.2157 46.5318C99.299 49.6881 99.2469 51.8756 99.0698 53.0943C98.9032 54.3183 98.5073 55.261 97.8823 55.9276C97.299 56.511 96.6532 56.8026 95.9448 56.8026C95.4553 56.8026 95.0907 56.7401 94.8407 56.6151C94.6011 56.4797 94.2626 56.2089 93.8198 55.8026C93.0959 55.0943 92.7834 54.4485 92.8823 53.8651C92.924 53.2818 93.1219 52.9693 93.4865 52.9276C93.8303 52.886 94.0751 52.7141 94.2157 52.4068C94.3928 52.0474 94.5386 50.6985 94.6532 48.3651C94.7626 46.0318 94.7886 44.4433 94.7365 43.5943L94.549 41.9901L92.0698 42.8026C88.6948 43.8183 86.4501 43.9068 85.3407 43.0735C84.8928 42.7558 84.6219 42.3756 84.5282 41.9276C84.4448 41.4849 84.5594 41.1308 84.8823 40.8651C85.1428 40.6464 86.2626 40.1776 88.2365 39.4693C90.2209 38.761 91.7886 38.2714 92.9448 37.9901L94.3407 37.6568L94.4032 35.8651C94.4969 34.6724 94.6584 34.0058 94.8823 33.8651ZM93.8198 23.4693C94.1219 23.2922 94.4657 23.1568 94.8407 23.0735C95.2157 22.9797 95.5334 22.9276 95.799 22.9276C96.0751 22.9276 96.2157 23.0006 96.2157 23.136C96.174 23.261 95.9032 23.6151 95.4032 24.1985C94.7365 25.0058 94.5386 25.4693 94.8198 25.5943C95.0803 25.7349 95.9709 25.8026 97.4865 25.8026C99.4865 25.8026 101.283 26.0631 102.882 26.5735C104.476 27.0735 106.945 28.1724 110.278 29.8651C113.653 31.6047 115.471 32.5631 115.737 32.7401C115.789 32.8235 115.705 32.9589 115.487 33.136C115.164 33.3183 114.325 33.3547 112.966 33.2401C111.617 33.1308 110.388 32.8964 109.278 32.5318C107.362 32.0058 104.914 30.8964 101.945 29.1985C99.0959 27.5631 96.8928 26.6516 95.3407 26.4693L94.2157 26.261L92.674 28.7401C90.4084 32.2401 88.0751 35.2297 85.674 37.6985C83.2678 40.1724 81.0959 41.8026 79.1532 42.5943C78.6115 42.8183 77.9344 42.9433 77.1323 42.9693C76.3407 42.9849 75.8719 42.8808 75.7365 42.6568C75.6115 42.4901 76.3667 41.5839 78.0073 39.9276C79.7001 38.1516 81.7678 35.9068 84.2157 33.1985C89.5907 27.3391 92.7886 24.0943 93.8198 23.4693ZM100.07 11.4693C100.612 10.9276 101.122 10.8183 101.612 11.136C102.096 11.4433 102.471 12.1516 102.737 13.261L103.07 14.5943L105.82 14.6568L108.549 14.7401L108.612 15.4068C108.695 15.8547 108.533 16.1724 108.132 16.3651C107.742 16.5631 106.7 16.8391 105.007 17.1985L102.82 17.5943L102.612 18.6568C102.471 19.3235 102.179 19.9068 101.737 20.4068C101.289 20.8964 100.804 21.136 100.278 21.136C99.7886 21.136 99.3303 20.9172 98.9032 20.4693C98.4865 20.0266 98.2365 19.4901 98.1532 18.8651L97.9448 17.9276L96.2157 18.136C95.0073 18.2193 94.2678 18.3339 94.0073 18.4693C93.7417 18.5943 93.5698 18.8599 93.4865 19.261C93.3459 19.8443 92.9969 20.3391 92.4448 20.7401C91.8876 21.1308 91.299 21.3235 90.674 21.3235C89.9657 21.3235 89.2573 20.9901 88.549 20.3235L87.549 19.261L84.3407 19.9276C79.1428 21.0006 75.9917 20.8443 74.8823 19.4693C74.6584 19.2089 74.7001 18.9172 75.0073 18.5943C75.3251 18.2922 75.6584 18.0891 76.0073 17.9901C76.8094 17.6881 79.9032 17.2922 85.2782 16.8026L87.0073 16.6568L87.2157 15.261C87.3407 14.4172 87.5542 13.6308 87.8615 12.9068C88.1792 12.1724 88.4969 11.6933 88.8198 11.4693C89.9292 10.886 90.9709 11.1099 91.9448 12.136C92.5282 12.761 92.8198 13.2297 92.8198 13.5318C92.8198 13.7558 92.9032 14.1985 93.0698 14.8651L93.3407 15.8026L95.7365 15.4693C97.4709 15.2506 98.3407 15.136 98.3407 15.136C98.4761 15.136 98.549 14.9797 98.549 14.6568C98.549 14.3131 98.7209 13.7714 99.0698 13.0318C99.4292 12.2974 99.7626 11.7766 100.07 11.4693Z" fill="#8D9DA5"/>
<path d="M148.648 47.3417C148.7 47.175 148.325 47.1542 147.523 47.2792C146.716 47.4615 145.273 47.8157 143.19 48.3417C142.924 48.4407 142.523 48.55 141.981 48.675C140.341 49.0813 139.409 49.4198 139.19 49.6959C138.966 49.9615 139.034 50.6698 139.398 51.8209C139.481 52.1698 139.544 52.4354 139.586 52.6125C139.987 54.0448 140.221 54.8365 140.294 54.9875C140.362 55.1438 140.57 55.1282 140.919 54.9459C141.32 54.7271 142.117 54.524 143.315 54.3417L145.19 54.0084L146.919 50.8209C148.07 48.6021 148.648 47.4407 148.648 47.3417ZM134.731 45.2167C135.034 44.9979 135.263 44.8782 135.419 44.8625C135.57 44.8365 135.846 44.9146 136.252 45.0917C136.513 45.2167 136.836 45.55 137.211 46.0917C137.596 46.6229 137.815 47.0396 137.856 47.3417C137.898 47.399 138.471 47.2479 139.586 46.8834C142.794 45.8573 145.398 45.3417 147.398 45.3417C148.148 45.3417 148.653 45.3782 148.919 45.4459C149.179 45.5188 149.45 45.7063 149.731 46.0084C150.117 46.4146 150.273 47.0188 150.19 47.8209C149.966 49.3365 149.096 51.175 147.586 53.3417L146.856 54.425L147.461 54.4875C147.804 54.5709 147.981 54.6959 147.981 54.8625C147.981 55.0188 147.758 55.2063 147.315 55.425C146.924 55.649 145.659 55.7584 143.523 55.7584C142.008 55.7063 141.07 55.7063 140.711 55.7584C140.362 55.8 140.148 55.9354 140.065 56.1542C139.784 56.8625 139.216 57.3521 138.356 57.6125C137.492 57.8781 136.731 57.7896 136.065 57.3417C135.299 56.899 134.695 55.9459 134.252 54.4875C133.804 53.0188 133.586 51.3521 133.586 49.4875C133.586 47.1698 133.966 45.7479 134.731 45.2167ZM142.127 29.8834C142.653 28.9563 142.856 28.4667 142.731 28.425C142.633 28.425 142.523 28.425 142.398 28.425C141.992 28.4667 141.112 28.6021 139.752 28.8209C138.403 29.0448 137.679 29.175 137.586 29.2167C137.586 29.3 137.429 29.8157 137.127 30.7584C136.763 31.7323 136.429 32.4615 136.127 32.9459C135.763 33.4354 135.606 33.7063 135.648 33.7584C135.784 33.8417 136.398 34.0657 137.481 34.425C138.575 34.774 139.148 34.925 139.19 34.8834C139.549 34.4407 140.528 32.774 142.127 29.8834ZM134.794 24.675C135.054 24.4146 135.471 24.274 136.044 24.2584C136.627 24.2323 137.049 24.3521 137.315 24.6125C137.591 24.9354 137.794 25.4875 137.919 26.2792L138.065 27.55L139.127 27.0084C139.836 26.7063 140.856 26.4198 142.19 26.1542C143.117 25.9354 143.716 25.8209 143.981 25.8209C144.258 25.8209 144.549 25.9354 144.856 26.1542C145.299 26.4615 145.523 26.8157 145.523 27.2167C145.523 28.149 144.502 30.2792 142.461 33.6125L141.19 35.675L144.648 37.0917C146.924 38.0657 148.148 38.55 148.315 38.55C148.409 38.55 149.633 39.1073 151.981 40.2167C154.258 41.2896 156.065 42.0657 157.398 42.55C158.773 43.0396 159.653 43.3938 160.044 43.6125C160.445 43.8365 160.648 44.0813 160.648 44.3417C160.648 44.6646 160.336 44.8938 159.711 45.0292C159.096 45.1542 158.367 45.175 157.523 45.0917C156.008 44.8729 154.383 44.4146 152.648 43.7167C150.924 43.024 148.148 41.7271 144.315 39.8209L139.523 37.425L138.856 38.2792C137.883 39.6125 136.508 41.0292 134.731 42.5292C132.95 44.0188 131.419 45.0448 130.127 45.6125C129.721 45.7948 129.32 45.9354 128.919 46.0292C128.513 46.1125 128.19 46.149 127.94 46.1334C127.7 46.1073 127.586 46.024 127.586 45.8834C127.586 45.7063 127.659 45.6125 127.815 45.6125C127.981 45.6125 128.591 45.3 129.648 44.675C130.633 44.1073 131.846 43.149 133.294 41.8C134.737 40.4407 135.883 39.175 136.731 38.0084C137.481 36.9979 137.836 36.3782 137.794 36.1542C137.752 35.9354 137.127 35.55 135.919 35.0084C134.987 34.5657 134.117 34.0396 133.315 33.425L132.19 32.4875L132.315 30.8834C132.367 30.0813 132.674 28.9875 133.231 27.6125C133.784 26.2375 134.304 25.2584 134.794 24.675ZM124.731 17.2167C125.216 16.7323 125.773 16.6229 126.398 16.8834C126.565 16.925 126.679 17.0032 126.752 17.1125C126.82 17.2271 126.82 17.3157 126.752 17.3834C126.679 17.4563 126.565 17.4875 126.398 17.4875C126.174 17.4875 126.065 17.6125 126.065 17.8625C126.065 18.1021 126.216 18.9042 126.523 20.2792C126.883 21.8782 127.106 23.2323 127.19 24.3417C127.273 25.1073 127.356 25.6021 127.44 25.8209C127.534 26.0448 127.695 26.1959 127.919 26.2792C128.179 26.3209 128.315 26.4823 128.315 26.7584C128.315 27.024 128.159 27.7115 127.856 28.8209C127.549 30.1542 126.815 30.8782 125.648 30.9875C124.492 31.1021 123.606 30.5292 122.981 29.2792C122.633 28.5292 122.445 27.4459 122.419 26.0292C122.403 24.6021 122.57 23.175 122.919 21.7584C123.502 19.3573 124.106 17.8417 124.731 17.2167ZM138.856 10.3417C138.773 10.0813 138.815 9.96669 138.981 10.0084C139.258 10.0657 140.086 10.4459 141.461 11.1542C143.195 12.0448 144.398 12.8209 145.065 13.4875C145.731 14.1542 146.065 14.9146 146.065 15.7584V16.425L151.127 16.2792C153.971 16.1959 155.841 16.2063 156.731 16.3C157.617 16.3834 158.216 16.649 158.523 17.0917C159.19 18.149 158.591 19.524 156.731 21.2167C156.065 21.8417 155.252 22.4667 154.294 23.0917C153.336 23.7063 152.7 24.0084 152.398 24.0084C152.299 24.0084 152.898 23.3209 154.19 21.9459C156.049 20.0448 156.981 18.8417 156.981 18.3417C156.856 18.0396 155.836 17.9198 153.919 17.9875C152.013 18.0604 149.294 18.3 145.752 18.7167C142.221 19.1334 138.388 19.675 134.252 20.3417C130.919 20.925 129.252 21.1282 129.252 20.9459C129.252 20.9459 129.299 20.8365 129.398 20.6125C129.7 20.0865 130.711 19.524 132.419 18.925C134.127 18.3157 136.117 17.8365 138.398 17.4875L140.315 17.1542L139.981 16.4875C139.758 16.0448 139.534 14.9771 139.315 13.2792C139.148 11.6854 138.992 10.7063 138.856 10.3417Z" fill="#E6DFD7"/>
<path d="M202.527 33.066C203.152 32.3993 204.11 32.3733 205.402 32.9826C206.469 33.4826 206.912 34.2222 206.735 35.191L206.589 35.9826L207.922 35.7951C208.865 35.6597 209.62 35.4774 210.193 35.2535C210.735 35.0347 211.579 34.9201 212.735 34.9201C213.443 34.9201 213.928 34.9566 214.193 35.0243C214.454 35.0972 214.745 35.2639 215.068 35.5243C215.735 36.2326 215.714 36.9931 215.006 37.7951C214.599 38.2431 213.162 38.7639 210.693 39.3576C208.235 39.9566 205.448 40.4566 202.339 40.8576C200.823 41.0816 200.068 41.2847 200.068 41.4618C200.068 41.6441 200.443 42.5556 201.193 44.191L202.402 46.7326L203.339 45.7326C203.865 45.066 204.349 44.3316 204.797 43.5243C205.058 43.0816 205.266 42.7951 205.422 42.6701C205.589 42.5347 205.823 42.4826 206.131 42.5243C206.657 42.566 206.969 42.8108 207.068 43.2535C207.193 43.7431 207.11 44.4774 206.818 45.4618C206.537 46.4358 206.157 47.3681 205.672 48.2535C205.047 49.2431 204.735 49.7951 204.735 49.9201C204.735 50.1024 205.344 50.5816 206.568 51.3576C207.787 52.1389 208.735 52.6389 209.402 52.8576C210.818 53.3889 211.323 54.1858 210.922 55.2535C210.532 56.4618 209.511 56.9566 207.86 56.7326C206.219 56.5139 204.49 55.6441 202.672 54.1285C201.948 53.5451 201.495 53.2118 201.318 53.1285C201.152 53.0347 200.886 53.0972 200.527 53.316C199.995 53.5972 199.329 53.7326 198.527 53.7326C197.735 53.7326 197.136 53.4826 196.735 52.9826C196.329 52.5399 196.131 52.0556 196.131 51.5243C196.131 51.1649 196.172 50.9566 196.256 50.8993C196.349 50.8316 196.599 50.8368 197.006 50.9201C197.573 51.0191 198.099 50.8472 198.589 50.3993L199.339 49.7326L198.402 47.7326C197.818 46.441 197.323 45.1285 196.922 43.7951C196.532 42.5451 196.178 41.9201 195.86 41.9201C195.553 41.9201 194.349 42.1441 192.256 42.5868C190.256 42.9931 188.844 43.2066 188.027 43.2326C187.204 43.2483 186.615 43.0816 186.256 42.7326C185.641 42.1076 185.672 41.4826 186.339 40.8576C187.089 40.1493 189.349 39.2431 193.131 38.1285C194.506 37.7691 195.303 37.5243 195.527 37.3993C195.745 37.2639 195.86 36.9931 195.86 36.5868C195.86 36.1441 195.99 35.6806 196.256 35.191C196.532 34.7066 196.803 34.3941 197.068 34.2535C197.553 34.0764 197.797 34.0764 197.797 34.2535C197.839 34.2951 197.797 34.4097 197.672 34.5868C197.49 34.9097 197.443 35.2899 197.527 35.7326C197.704 36.3472 197.943 36.7014 198.235 36.7951C198.527 36.8785 199.381 36.8108 200.797 36.5868C202.615 36.3264 203.547 36.191 203.589 36.191C203.641 36.191 203.62 36.1285 203.527 36.0035C203.443 35.8681 203.308 35.6649 203.131 35.3993C202.24 34.3733 202.037 33.5972 202.527 33.066ZM177.735 15.5243C178.261 15.3472 178.735 15.691 179.152 16.566C179.579 17.4306 179.886 18.7274 180.068 20.4618C180.193 22.0191 180.282 22.7951 180.339 22.7951C180.339 22.8368 180.974 22.7691 182.256 22.5868C183.141 22.4618 183.719 22.4149 183.985 22.441C184.261 22.4566 184.573 22.5972 184.922 22.8576C185.365 23.1649 185.615 23.6076 185.672 24.191C185.756 24.941 185.464 25.5556 184.797 26.0243C184.131 26.4983 182.974 26.9306 181.339 27.316L180.193 27.6493L180.402 31.4618L180.527 35.2535L182.006 35.191C182.839 35.191 183.724 35.1233 184.672 34.9826C185.865 34.8576 186.745 35.066 187.318 35.6076C187.902 36.1389 187.928 36.7535 187.402 37.4618C186.287 38.8785 184.599 38.8576 182.339 37.3993C181.448 36.7743 180.933 36.4618 180.797 36.4618C180.657 36.4618 180.506 38.6649 180.339 43.066C180.157 47.3316 179.954 49.8889 179.735 50.7326C179.329 52.1493 178.683 52.7483 177.797 52.5243C177.266 52.3889 176.922 51.816 176.756 50.816C176.599 49.816 176.506 47.4097 176.464 43.5868C176.464 42.4774 176.448 41.3264 176.422 40.1285C176.407 38.9201 176.386 38.0139 176.36 37.3993C176.344 36.7743 176.339 36.4618 176.339 36.4618C176.339 36.3681 175.912 37.2066 175.068 38.9826C174.36 40.4149 173.782 41.3524 173.339 41.7951C172.891 42.2431 172.448 42.3056 172.006 41.9826C171.422 41.6389 171.318 41.066 171.693 40.2743C172.068 39.4722 173.12 38.1076 174.86 36.191L176.339 34.4618V28.316L175.402 28.5243C171.303 29.1076 168.698 28.9566 167.589 28.066C167.198 27.7483 167.224 27.3472 167.672 26.8576C167.891 26.5972 168.745 26.2014 170.235 25.6701C171.719 25.1285 173.282 24.6389 174.922 24.191L176.256 23.8576L176.464 20.5243C176.599 17.4566 177.027 15.7899 177.735 15.5243ZM195.86 12.9826C196.219 12.7222 196.516 12.566 196.756 12.5243C197.006 12.4826 197.349 12.5764 197.797 12.7951C198.24 12.9201 198.464 13.0764 198.464 13.2535C198.464 13.4358 198.261 13.5972 197.86 13.7326C197.454 13.816 197.266 13.9826 197.297 14.2326C197.323 14.4722 197.558 15.1024 198.006 16.1285C198.224 16.6597 198.402 16.9722 198.527 17.066C198.662 17.1493 198.886 17.1493 199.193 17.066C202.844 16.1806 205.974 15.5139 208.589 15.066C209.797 14.8889 210.662 14.8681 211.193 15.0035C211.735 15.1285 212.115 15.4566 212.339 15.9826C212.724 16.8316 212.256 17.6233 210.922 18.3576C209.589 19.0972 207.527 19.7483 204.735 20.316C202.287 20.816 201.016 21.1076 200.922 21.191C200.797 21.2743 201.068 21.7431 201.735 22.5868C201.912 22.7691 202.089 22.9722 202.256 23.191C202.433 23.4149 202.568 23.5816 202.652 23.691C202.745 23.8056 202.797 23.8785 202.797 23.9201C202.839 23.9201 203.006 23.7899 203.297 23.5243C203.589 23.2639 203.933 22.9306 204.339 22.5243C205.089 21.8576 205.761 21.3576 206.36 21.0243C206.954 20.691 207.323 20.6181 207.464 20.7951C207.547 20.9774 207.454 21.1806 207.193 21.3993C206.886 21.6649 206.443 22.441 205.86 23.7326L205.006 25.6493L205.589 26.1285C207.99 27.9931 209.193 29.191 209.193 29.7326C209.193 30.0399 208.99 30.3941 208.589 30.7951C207.839 31.5451 206.422 31.3889 204.339 30.316L202.922 29.5868L202.339 30.3993C201.308 31.7326 200.318 32.4566 199.36 32.566C198.402 32.6806 197.766 32.1493 197.464 30.9826C197.157 29.6493 197.339 29.1441 198.006 29.4618C198.224 29.5868 198.433 29.6076 198.631 29.5243C198.823 29.441 199.12 29.1806 199.527 28.7326C200.235 28.066 200.589 27.6806 200.589 27.566C200.589 27.4566 200.141 26.8681 199.256 25.7951C198.323 24.5868 197.683 23.6806 197.339 23.066L196.672 21.9201L194.922 22.316C191.282 22.9826 189.261 22.5399 188.86 20.9826C188.735 20.5399 188.844 20.2066 189.193 19.9826C189.553 19.7639 190.62 19.4097 192.402 18.9201L195.256 18.1285V15.7951C195.256 14.7691 195.287 14.1024 195.36 13.7951C195.428 13.4774 195.594 13.2066 195.86 12.9826ZM202.735 11.1285C202.954 11.0347 203.464 10.9826 204.256 10.9826C205.016 10.941 205.652 11.1181 206.152 11.5035C206.662 11.8785 206.922 12.3316 206.922 12.8576C206.922 14.0556 206.323 14.4566 205.131 14.066C203.933 13.6649 203.089 13.0191 202.589 12.1285C202.323 11.5868 202.37 11.2535 202.735 11.1285Z" fill="#8D9DA5"/>
</svg>
